<svg id="easyvgl-logo" data-name="easyvgl-logo" xmlns="http://www.w3.org/2000/svg" viewBox="0 0 238.96 28"><defs><style>.cls-1{fill:#75839B;}.cls-2{fill:#5436EA;}</style></defs><path class="cls-1" d="M161,0V11.2h-5.6V22.4h-5.6V28h-11.2V22.4H133V11.2h-5.6V0h11.2V11.2h11.2V0Z" transform="translate(-0.48)"/><path class="cls-1" d="M172.24,22.4h-5.6V5.6h5.6V0h28V5.6h-22.4V22.4H189V16.8h-5.6V11.2h16.8V28h-28Z" transform="translate(-0.48)"/><path class="cls-1" d="M205.84,28V0H217V22.4h22.4V28Z" transform="translate(-0.48)"/><path class="cls-2" d="M4.05,3.57H.48V0H4.05Zm0,4.07H.48V4.07H4.05Zm0,4.07H.48V8.14H4.05Zm0,4.07H.48V12.22H4.05Zm0,4.08H.48V16.29H4.05Zm0,4.07H.48V20.36H4.05Zm0,4.07H.48V24.43H4.05ZM8.12,3.57H4.55V0H8.12ZM8.12,28H4.55V24.43H8.12ZM12.19,3.57H8.62V0h3.57Zm0,24.43H8.62V24.43h3.57ZM16.26,3.57H12.7V0h3.56Zm0,8.14H12.7V8.14h3.56Zm0,8.15H12.7V16.29h3.56Zm0,8.14H12.7V24.43h3.56ZM20.34,3.57H16.77V0h3.57Zm0,8.14H16.77V8.14h3.57Zm0,8.15H16.77V16.29h3.57Zm0,8.14H16.77V24.43h3.57ZM24.41,3.57H20.84V0h3.57Zm0,8.14H20.84V8.14h3.57Zm0,8.15H20.84V16.29h3.57Zm0,8.14H20.84V24.43h3.57ZM28.48,3.57H24.91V0h3.57Zm0,4.07H24.91V4.07h3.57Zm0,4.07H24.91V8.14h3.57Zm0,4.07H24.91V12.22h3.57Zm0,4.08H24.91V16.29h3.57Zm0,4.07H24.91V20.36h3.57Zm0,4.07H24.91V24.43h3.57Z" transform="translate(-0.48)"/><path class="cls-2" d="M36.66,3.57H33.09V0h3.57Zm0,4.07H33.09V4.07h3.57Zm0,4.07H33.09V8.14h3.57Zm0,4.07H33.09V12.22h3.57Zm0,4.08H33.09V16.29h3.57Zm0,4.07H33.09V20.36h3.57Zm0,4.07H33.09V24.43h3.57ZM40.73,3.57H37.17V0h3.56Zm0,8.14H37.17V8.14h3.56Zm0,16.29H37.17V24.43h3.56ZM44.81,3.57H41.24V0h3.57Zm0,8.14H41.24V8.14h3.57Zm0,16.29H41.24V24.43h3.57ZM48.88,3.57H45.31V0h3.57Zm0,8.14H45.31V8.14h3.57Zm0,8.15H45.31V16.29h3.57Zm0,8.14H45.31V24.43h3.57ZM53,3.57H49.38V0H53ZM53,28H49.38V24.43H53ZM57,3.57H53.45V0H57ZM57,28H53.45V24.43H57ZM61.09,3.57H57.53V0h3.56Zm0,4.07H57.53V4.07h3.56Zm0,4.07H57.53V8.14h3.56Zm0,4.07H57.53V12.22h3.56Zm0,4.08H57.53V16.29h3.56Zm0,4.07H57.53V20.36h3.56Zm0,4.07H57.53V24.43h3.56Z" transform="translate(-0.48)"/><path class="cls-2" d="M69.28,3.57H65.71V0h3.57Zm0,4.07H65.71V4.07h3.57Zm0,4.07H65.71V8.14h3.57Zm0,4.07H65.71V12.22h3.57Zm0,4.08H65.71V16.29h3.57Zm0,4.07H65.71V20.36h3.57Zm0,4.07H65.71V24.43h3.57ZM73.35,3.57H69.78V0h3.57Zm0,16.29H69.78V16.29h3.57Zm0,8.14H69.78V24.43h3.57ZM77.42,3.57H73.85V0h3.57Zm0,16.29H73.85V16.29h3.57Zm0,8.14H73.85V24.43h3.57ZM81.49,3.57H77.93V0h3.56Zm0,8.14H77.93V8.14h3.56Zm0,8.15H77.93V16.29h3.56Zm0,8.14H77.93V24.43h3.56ZM85.56,3.57H82V0h3.56Zm0,8.14H82V8.14h3.56Zm0,16.29H82V24.43h3.56ZM89.64,3.57H86.07V0h3.57Zm0,8.14H86.07V8.14h3.57Zm0,16.29H86.07V24.43h3.57ZM93.71,3.57H90.14V0h3.57Zm0,4.07H90.14V4.07h3.57Zm0,4.07H90.14V8.14h3.57Zm0,4.07H90.14V12.22h3.57Zm0,4.08H90.14V16.29h3.57Zm0,4.07H90.14V20.36h3.57Zm0,4.07H90.14V24.43h3.57Z" transform="translate(-0.48)"/><path class="cls-2" d="M101.89,3.57H98.32V0h3.57Zm0,4.07H98.32V4.07h3.57Zm0,4.07H98.32V8.14h3.57Zm0,4.07H98.32V12.22h3.57Zm0,4.08H98.32V16.29h3.57Zm0,4.07H98.32V20.36h3.57Zm0,4.07H98.32V24.43h3.57ZM106,3.57H102.4V0H106Zm0,16.29H102.4V16.29H106ZM106,28H102.4V24.43H106ZM110,3.57h-3.57V0H110Zm0,16.29h-3.57V16.29H110ZM110,28h-3.57V24.43H110Zm4.07-24.43h-3.57V0h3.57Zm0,4.07h-3.57V4.07h3.57Zm0,4.07h-3.57V8.14h3.57Zm0,8.15h-3.57V16.29h3.57Zm0,8.14h-3.57V24.43h3.57Zm4.07-24.43h-3.57V0h3.57Zm0,24.43h-3.57V24.43h3.57Zm4.07-24.43h-3.57V0h3.57Zm0,24.43h-3.57V24.43h3.57Zm4.07-24.43h-3.57V0h3.57Zm0,4.07h-3.57V4.07h3.57Zm0,4.07h-3.57V8.14h3.57Zm0,4.07h-3.57V12.22h3.57Zm0,4.08h-3.57V16.29h3.57Zm0,4.07h-3.57V20.36h3.57Zm0,4.07h-3.57V24.43h3.57Z" transform="translate(-0.48)"/></svg>